<?xml version="1.0" encoding="UTF-8" standalone="no"?>
<!-- Created with Inkscape (http://www.inkscape.org/) -->
<svg
   xmlns:svg="http://www.w3.org/2000/svg"
   xmlns="http://www.w3.org/2000/svg"
   version="1.0"
   width="400"
   height="192"
   id="svg2"
   xml:space="preserve"><defs
     id="defs5"><clipPath
       id="clipPath17"><path
         d="M 0,0 L 595.276,0 L 595.276,841.89 L 0,841.89 L 0,0 z"
         id="path19" /></clipPath><clipPath
       id="clipPath971"><path
         d="M 441.496,696.189 L 543.543,696.189 L 543.543,746.646 L 441.496,746.646 L 441.496,696.189 z"
         id="path973" /></clipPath><clipPath
       id="clipPath1025"><path
         d="M 447.057,701.439 L 540.885,701.439 L 540.885,746.43 L 447.057,746.43 L 447.057,701.439 z"
         id="path1027" /></clipPath><clipPath
       id="clipPath1059"><path
         d="M 447.057,701.439 L 540.885,701.439 L 540.885,746.43 L 447.057,746.43 L 447.057,701.439 z"
         id="path1061" /></clipPath></defs><g
     transform="matrix(1.25,0,0,-1.25,-284.7636,927.90076)"
     id="g11"><g
       id="g13"><g
         clip-path="url(#clipPath17)"
         id="g15"><g
           transform="matrix(3.2400055,0,0,3.0578756,-1212.6595,-1548.8046)"
           id="g967"><g
             clip-path="url(#clipPath971)"
             id="g969"><path
               d="M 483.763,746.427 C 483.763,746.427 480.297,740.376 480.166,734.684 L 483.371,734.684 L 483.371,731.937 L 480.034,731.937 C 480.034,731.937 479.773,726.245 483.763,719.9 L 480.525,719.9 C 480.525,719.9 472.675,730.726 480.525,746.427 L 483.763,746.427 z"
               id="path975"
               style="fill:#000000;fill-opacity:1;fill-rule:nonzero;stroke:none" /><path
               d="M 477.44,719.909 C 477.44,719.909 469.589,730.726 477.44,746.427 L 447.249,746.427 L 447.249,719.909 L 477.44,719.909 z"
               id="path977"
               style="fill:#e2001a;fill-opacity:1;fill-rule:nonzero;stroke:none" /><path
               d="M 495.9,719.896 L 498.954,719.896 L 498.954,731.931 L 502.213,731.931 L 502.213,734.679 L 499.005,734.679 C 499.137,740.371 502.604,746.422 502.604,746.422 L 499.367,746.422 C 496.877,741.444 495.967,736.956 495.885,733.147 L 495.9,719.896 z"
               id="path979"
               style="fill:#000000;fill-opacity:1;fill-rule:nonzero;stroke:none" /><path
               d="M 507.037,731.931 C 507.037,731.931 506.774,726.24 510.765,719.894 L 507.526,719.894 C 507.526,719.894 503.864,724.944 504.045,733.148 L 504.045,746.427 L 507.021,746.427 L 507.037,731.931 z"
               id="path981"
               style="fill:#000000;fill-opacity:1;fill-rule:nonzero;stroke:none" /><path
               d="M 513.878,719.894 C 509.887,726.24 510.149,731.931 510.149,731.931 L 510.132,746.427 L 540.815,746.427 L 540.791,719.897 L 513.878,719.894 z"
               id="path983"
               style="fill:#e2001a;fill-opacity:1;fill-rule:nonzero;stroke:none" /><path
               d="M 488.773,746.427 L 485.764,746.427 L 485.764,719.895 L 488.773,719.895 L 488.773,746.427 z"
               id="path985"
               style="fill:#000000;fill-opacity:1;fill-rule:nonzero;stroke:none" /><path
               d="M 492.829,746.427 L 489.624,746.427 C 489.624,746.427 494.662,739.82 489.624,733.147 L 492.829,733.147 C 492.829,733.147 497.576,739.42 492.829,746.427"
               id="path987"
               style="fill:#000000;fill-opacity:1;fill-rule:nonzero;stroke:none" /><path
               d="M 449.72,716.309 C 449.756,716.244 449.72,716.224 449.692,716.224 C 449.671,716.224 449.6,716.237 449.48,716.224 C 449.134,716.188 448.64,716.027 448.407,715.928 C 448.357,715.908 448.315,715.893 448.301,715.893 C 448.286,715.893 448.265,715.908 448.265,715.936 C 448.265,715.956 448.28,715.97 448.315,715.99 C 448.569,716.166 449.226,716.563 449.276,716.591 C 449.395,716.662 449.438,716.684 449.473,716.684 C 449.494,716.684 449.509,716.669 449.544,716.62 C 449.593,716.549 449.642,716.45 449.72,716.309 M 447.673,713.299 C 447.673,714.401 447.673,714.6 447.658,714.826 C 447.644,715.065 447.588,715.179 447.355,715.228 C 447.297,715.242 447.178,715.25 447.114,715.25 C 447.086,715.25 447.058,715.263 447.058,715.292 C 447.058,715.335 447.093,715.35 447.171,715.35 C 447.489,715.35 447.933,715.328 447.969,715.328 C 448.018,715.328 449.424,715.328 449.587,715.335 C 449.72,715.342 449.834,715.357 449.889,715.37 C 449.925,715.377 449.953,715.404 449.988,715.404 C 450.01,715.404 450.017,715.377 450.017,715.342 C 450.017,715.292 449.982,715.208 449.961,715.009 C 449.953,714.939 449.939,714.628 449.925,714.543 C 449.918,714.507 449.904,714.464 449.876,714.464 C 449.834,714.464 449.82,714.5 449.82,714.557 C 449.82,714.606 449.812,714.728 449.777,714.812 C 449.727,714.924 449.657,715.009 449.276,715.05 C 449.155,715.065 448.386,715.072 448.308,715.072 C 448.28,715.072 448.265,715.05 448.265,715.001 L 448.265,713.054 C 448.265,713.004 448.273,712.983 448.308,712.983 C 448.4,712.983 449.268,712.983 449.431,712.997 C 449.6,713.011 449.7,713.026 449.763,713.095 C 449.812,713.15 449.84,713.185 449.869,713.185 C 449.889,713.185 449.904,713.171 449.904,713.129 C 449.904,713.091 449.869,712.969 449.848,712.734 C 449.834,712.591 449.82,712.333 449.82,712.284 C 449.82,712.226 449.82,712.148 449.77,712.148 C 449.735,712.148 449.72,712.176 449.72,712.213 C 449.72,712.284 449.72,712.355 449.692,712.446 C 449.664,712.543 449.6,712.663 449.325,712.691 C 449.134,712.713 448.435,712.727 448.315,712.727 C 448.28,712.727 448.265,712.706 448.265,712.678 L 448.265,712.056 C 448.265,711.818 448.258,710.998 448.265,710.848 C 448.286,710.361 448.393,710.269 449.085,710.269 C 449.268,710.269 449.579,710.269 449.763,710.347 C 449.946,710.424 450.031,710.567 450.081,710.855 C 450.095,710.933 450.109,710.961 450.144,710.961 C 450.186,710.961 450.186,710.905 450.186,710.855 C 450.186,710.799 450.13,710.319 450.095,710.173 C 450.045,709.987 449.988,709.987 449.713,709.987 C 448.647,709.987 448.173,710.031 447.969,710.031 C 447.933,710.031 447.489,710.01 447.277,710.01 C 447.199,710.01 447.164,710.024 447.164,710.066 C 447.164,710.087 447.178,710.109 447.22,710.109 C 447.284,710.109 447.369,710.123 447.432,710.137 C 447.574,710.166 447.609,710.319 447.637,710.524 C 447.673,710.819 447.673,711.378 447.673,712.056 L 447.673,713.299 z"
               id="path989"
               style="fill:#000000;fill-opacity:1;fill-rule:nonzero;stroke:none" /><path
               d="M 452.03,710.673 C 451.345,711.289 451.175,712.091 451.175,712.762 C 451.175,713.236 451.338,714.063 451.966,714.692 C 452.39,715.114 453.033,715.447 454.12,715.447 C 454.403,715.447 454.798,715.425 455.144,715.362 C 455.413,715.314 455.639,715.27 455.865,715.257 C 455.942,715.25 455.956,715.221 455.956,715.179 C 455.956,715.121 455.935,715.037 455.921,714.783 C 455.907,714.55 455.907,714.163 455.9,714.056 C 455.893,713.95 455.879,713.906 455.836,713.906 C 455.787,713.906 455.779,713.957 455.779,714.056 C 455.779,714.332 455.666,714.621 455.483,714.777 C 455.236,714.987 454.693,715.179 454.07,715.179 C 453.132,715.179 452.693,714.903 452.447,714.664 C 451.931,714.17 451.81,713.541 451.81,712.82 C 451.81,711.47 452.849,710.234 454.36,710.234 C 454.89,710.234 455.307,710.297 455.589,710.589 C 455.737,710.744 455.829,711.054 455.85,711.182 C 455.865,711.26 455.879,711.289 455.921,711.289 C 455.956,711.289 455.97,711.239 455.97,711.182 C 455.97,711.131 455.886,710.518 455.815,710.276 C 455.773,710.144 455.759,710.13 455.631,710.074 C 455.349,709.96 454.812,709.91 454.36,709.91 C 453.301,709.91 452.588,710.173 452.03,710.673"
               id="path991"
               style="fill:#000000;fill-opacity:1;fill-rule:nonzero;stroke:none" /><path
               d="M 457.531,712.883 C 457.531,714.429 458.414,715.208 459.594,715.208 C 460.71,715.208 461.741,714.295 461.741,712.599 C 461.741,710.545 460.427,710.178 459.791,710.178 C 458.52,710.178 457.531,711.239 457.531,712.883 M 456.86,712.684 C 456.86,711.414 457.666,709.91 459.6,709.91 C 461.303,709.91 462.419,711.218 462.419,712.799 C 462.419,714.443 461.232,715.447 459.643,715.447 C 457.694,715.447 456.86,713.829 456.86,712.684"
               id="path993"
               style="fill:#000000;fill-opacity:1;fill-rule:nonzero;stroke:none" /><path
               d="M 464.721,712.042 C 464.721,711.005 464.749,710.552 464.876,710.424 C 464.99,710.312 465.173,710.262 465.724,710.262 C 466.098,710.262 466.408,710.269 466.578,710.475 C 466.67,710.589 466.741,710.766 466.762,710.898 C 466.769,710.954 466.783,710.989 466.826,710.989 C 466.861,710.989 466.867,710.961 466.867,710.883 C 466.867,710.807 466.818,710.382 466.762,710.178 C 466.712,710.016 466.692,709.987 466.317,709.987 C 465.3,709.987 464.834,710.031 464.424,710.031 C 464.361,710.031 463.944,710.01 463.732,710.01 C 463.655,710.01 463.619,710.024 463.619,710.066 C 463.619,710.087 463.633,710.109 463.676,710.109 C 463.739,710.109 463.824,710.123 463.888,710.137 C 464.029,710.166 464.063,710.319 464.092,710.524 C 464.127,710.819 464.127,711.378 464.127,712.056 L 464.127,713.299 C 464.127,714.401 464.127,714.6 464.114,714.826 C 464.099,715.065 464.043,715.179 463.81,715.228 C 463.753,715.242 463.633,715.25 463.57,715.25 C 463.541,715.25 463.513,715.263 463.513,715.292 C 463.513,715.335 463.548,715.35 463.626,715.35 C 463.944,715.35 464.388,715.328 464.424,715.328 C 464.46,715.328 464.975,715.35 465.187,715.35 C 465.264,715.35 465.3,715.335 465.3,715.292 C 465.3,715.263 465.272,715.25 465.244,715.25 C 465.194,715.25 465.095,715.242 465.01,715.228 C 464.805,715.193 464.749,715.072 464.735,714.826 C 464.721,714.6 464.721,714.401 464.721,713.299 L 464.721,712.042 z"
               id="path995"
               style="fill:#000000;fill-opacity:1;fill-rule:nonzero;stroke:none" /><path
               d="M 468.308,713.299 C 468.308,714.401 468.308,714.6 468.294,714.826 C 468.28,715.065 468.224,715.179 467.991,715.228 C 467.934,715.242 467.815,715.25 467.75,715.25 C 467.722,715.25 467.694,715.263 467.694,715.292 C 467.694,715.335 467.729,715.35 467.807,715.35 C 468.125,715.35 468.57,715.328 468.605,715.328 C 468.654,715.328 470.06,715.328 470.223,715.335 C 470.357,715.342 470.47,715.357 470.526,715.37 C 470.562,715.377 470.589,715.404 470.625,715.404 C 470.646,715.404 470.653,715.377 470.653,715.342 C 470.653,715.292 470.618,715.208 470.597,715.009 C 470.589,714.939 470.576,714.628 470.562,714.543 C 470.554,714.507 470.54,714.464 470.512,714.464 C 470.47,714.464 470.456,714.5 470.456,714.557 C 470.456,714.606 470.449,714.728 470.413,714.812 C 470.363,714.924 470.293,715.009 469.911,715.05 C 469.791,715.065 469.022,715.072 468.944,715.072 C 468.916,715.072 468.901,715.05 468.901,715.001 L 468.901,713.054 C 468.901,713.004 468.909,712.983 468.944,712.983 C 469.035,712.983 469.905,712.983 470.067,712.997 C 470.237,713.011 470.336,713.026 470.399,713.095 C 470.449,713.15 470.477,713.185 470.504,713.185 C 470.526,713.185 470.54,713.171 470.54,713.129 C 470.54,713.091 470.504,712.969 470.484,712.734 C 470.47,712.591 470.456,712.333 470.456,712.284 C 470.456,712.226 470.456,712.148 470.406,712.148 C 470.371,712.148 470.357,712.176 470.357,712.213 C 470.357,712.284 470.357,712.355 470.329,712.446 C 470.3,712.543 470.237,712.663 469.961,712.691 C 469.77,712.713 469.071,712.727 468.951,712.727 C 468.916,712.727 468.901,712.706 468.901,712.678 L 468.901,712.056 C 468.901,711.818 468.895,710.998 468.901,710.848 C 468.923,710.361 469.029,710.269 469.721,710.269 C 469.905,710.269 470.215,710.269 470.399,710.347 C 470.583,710.424 470.667,710.567 470.717,710.855 C 470.731,710.933 470.745,710.961 470.781,710.961 C 470.823,710.961 470.823,710.905 470.823,710.855 C 470.823,710.799 470.766,710.319 470.731,710.173 C 470.682,709.987 470.625,709.987 470.349,709.987 C 469.283,709.987 468.81,710.031 468.605,710.031 C 468.57,710.031 468.125,710.01 467.913,710.01 C 467.835,710.01 467.8,710.024 467.8,710.066 C 467.8,710.087 467.815,710.109 467.857,710.109 C 467.92,710.109 468.005,710.123 468.068,710.137 C 468.209,710.166 468.245,710.319 468.273,710.524 C 468.308,710.819 468.308,711.378 468.308,712.056 L 468.308,713.299 z"
               id="path997"
               style="fill:#000000;fill-opacity:1;fill-rule:nonzero;stroke:none" /><path
               d="M 474.912,713.299 C 474.912,714.401 474.912,714.6 474.898,714.826 C 474.884,715.065 474.827,715.179 474.594,715.228 C 474.538,715.242 474.418,715.25 474.354,715.25 C 474.326,715.25 474.297,715.263 474.297,715.292 C 474.297,715.335 474.333,715.35 474.41,715.35 C 474.728,715.35 475.152,715.328 475.209,715.328 C 475.363,715.328 475.773,715.35 476.098,715.35 C 476.982,715.35 477.299,715.05 477.412,714.946 C 477.568,714.798 477.765,714.479 477.765,714.107 C 477.765,713.102 477.031,712.425 476.028,712.425 C 475.992,712.425 475.915,712.425 475.879,712.433 C 475.844,712.433 475.802,712.446 475.802,712.482 C 475.802,712.536 475.844,712.543 475.992,712.543 C 476.677,712.543 477.214,713.047 477.214,713.696 C 477.214,713.928 477.193,714.401 476.819,714.783 C 476.444,715.164 476.014,715.136 475.851,715.136 C 475.731,715.136 475.611,715.121 475.548,715.093 C 475.505,715.079 475.491,715.03 475.491,714.96 L 475.491,712.056 C 475.491,711.378 475.491,710.819 475.526,710.524 C 475.548,710.319 475.589,710.166 475.802,710.137 C 475.901,710.123 476.056,710.109 476.12,710.109 C 476.162,710.109 476.176,710.087 476.176,710.066 C 476.176,710.031 476.14,710.01 476.063,710.01 C 475.674,710.01 475.23,710.031 475.194,710.031 C 475.173,710.031 474.728,710.01 474.517,710.01 C 474.439,710.01 474.403,710.024 474.403,710.066 C 474.403,710.087 474.418,710.109 474.459,710.109 C 474.523,710.109 474.608,710.123 474.672,710.137 C 474.813,710.166 474.848,710.319 474.876,710.524 C 474.912,710.819 474.912,711.378 474.912,712.056 L 474.912,713.299 z"
               id="path999"
               style="fill:#000000;fill-opacity:1;fill-rule:nonzero;stroke:none" /><path
               d="M 479.312,712.883 C 479.312,714.429 480.195,715.208 481.374,715.208 C 482.49,715.208 483.521,714.295 483.521,712.599 C 483.521,710.545 482.207,710.178 481.572,710.178 C 480.3,710.178 479.312,711.239 479.312,712.883 M 478.64,712.684 C 478.64,711.414 479.445,709.91 481.381,709.91 C 483.083,709.91 484.199,711.218 484.199,712.799 C 484.199,714.443 483.012,715.447 481.424,715.447 C 479.475,715.447 478.64,713.829 478.64,712.684"
               id="path1001"
               style="fill:#000000;fill-opacity:1;fill-rule:nonzero;stroke:none" /><path
               d="M 486.36,712.042 C 486.36,711.005 486.388,710.552 486.515,710.424 C 486.628,710.312 486.812,710.262 487.363,710.262 C 487.738,710.262 488.048,710.269 488.217,710.475 C 488.31,710.589 488.38,710.766 488.4,710.898 C 488.408,710.954 488.422,710.989 488.465,710.989 C 488.499,710.989 488.507,710.961 488.507,710.883 C 488.507,710.807 488.458,710.382 488.4,710.178 C 488.351,710.016 488.331,709.987 487.956,709.987 C 486.939,709.987 486.473,710.031 486.063,710.031 C 486,710.031 485.583,710.01 485.371,710.01 C 485.293,710.01 485.258,710.024 485.258,710.066 C 485.258,710.087 485.272,710.109 485.314,710.109 C 485.379,710.109 485.463,710.123 485.527,710.137 C 485.668,710.166 485.704,710.319 485.731,710.524 C 485.767,710.819 485.767,711.378 485.767,712.056 L 485.767,713.299 C 485.767,714.401 485.767,714.6 485.753,714.826 C 485.738,715.065 485.682,715.179 485.449,715.228 C 485.393,715.242 485.272,715.25 485.209,715.25 C 485.181,715.25 485.152,715.263 485.152,715.292 C 485.152,715.335 485.187,715.35 485.265,715.35 C 485.583,715.35 486.028,715.328 486.063,715.328 C 486.099,715.328 486.614,715.35 486.826,715.35 C 486.904,715.35 486.939,715.335 486.939,715.292 C 486.939,715.263 486.91,715.25 486.883,715.25 C 486.833,715.25 486.734,715.242 486.649,715.228 C 486.445,715.193 486.388,715.072 486.374,714.826 C 486.36,714.6 486.36,714.401 486.36,713.299 L 486.36,712.042 z"
               id="path1003"
               style="fill:#000000;fill-opacity:1;fill-rule:nonzero;stroke:none" /><path
               d="M 490.591,711.839 C 490.591,712.22 490.52,712.375 490.428,712.578 C 490.379,712.691 489.432,714.247 489.186,714.613 C 489.008,714.875 488.832,715.05 488.704,715.136 C 488.599,715.208 488.465,715.25 488.4,715.25 C 488.365,715.25 488.331,715.263 488.331,715.299 C 488.331,715.328 488.358,715.35 488.422,715.35 C 488.556,715.35 489.086,715.328 489.121,715.328 C 489.171,715.328 489.439,715.35 489.714,715.35 C 489.793,715.35 489.807,715.328 489.807,715.299 C 489.807,715.27 489.764,715.263 489.7,715.235 C 489.645,715.208 489.609,715.164 489.609,715.109 C 489.609,715.022 489.645,714.939 489.7,714.832 C 489.813,714.628 490.873,712.806 491,712.599 C 491.134,712.897 492.031,714.443 492.172,714.677 C 492.265,714.826 492.292,714.946 492.292,715.037 C 492.292,715.136 492.265,715.214 492.179,715.235 C 492.116,715.257 492.074,715.27 492.074,715.307 C 492.074,715.335 492.116,715.35 492.187,715.35 C 492.37,715.35 492.596,715.328 492.653,715.328 C 492.695,715.328 493.203,715.35 493.337,715.35 C 493.387,715.35 493.43,715.335 493.43,715.307 C 493.43,715.27 493.394,715.25 493.337,715.25 C 493.26,715.25 493.126,715.221 493.012,715.149 C 492.871,715.065 492.794,714.98 492.638,714.792 C 492.406,714.507 491.416,712.848 491.289,712.543 C 491.184,712.29 491.184,712.07 491.184,711.839 L 491.184,711.231 C 491.184,711.118 491.184,710.819 491.205,710.524 C 491.219,710.319 491.282,710.166 491.495,710.137 C 491.593,710.123 491.748,710.109 491.812,710.109 C 491.854,710.109 491.869,710.087 491.869,710.066 C 491.869,710.031 491.834,710.01 491.755,710.01 C 491.368,710.01 490.923,710.031 490.887,710.031 C 490.851,710.031 490.406,710.01 490.195,710.01 C 490.117,710.01 490.082,710.024 490.082,710.066 C 490.082,710.087 490.096,710.109 490.138,710.109 C 490.202,710.109 490.286,710.123 490.35,710.137 C 490.492,710.166 490.555,710.319 490.569,710.524 C 490.591,710.819 490.591,711.118 490.591,711.231 L 490.591,711.839 z"
               id="path1005"
               style="fill:#000000;fill-opacity:1;fill-rule:nonzero;stroke:none" /><path
               d="M 496.071,712.056 C 496.071,711.378 496.071,710.819 496.105,710.524 C 496.126,710.319 496.169,710.166 496.381,710.137 C 496.481,710.123 496.636,710.109 496.698,710.109 C 496.741,710.109 496.754,710.087 496.754,710.066 C 496.754,710.031 496.719,710.01 496.643,710.01 C 496.254,710.01 495.811,710.031 495.776,710.031 C 495.739,710.031 495.295,710.01 495.082,710.01 C 495.003,710.01 494.968,710.024 494.968,710.066 C 494.968,710.087 494.982,710.109 495.024,710.109 C 495.089,710.109 495.174,710.123 495.238,710.137 C 495.378,710.166 495.415,710.319 495.442,710.524 C 495.478,710.819 495.478,711.378 495.478,712.056 L 495.478,715.044 L 494.431,715.03 C 493.994,715.022 493.825,714.973 493.713,714.804 C 493.634,714.684 493.613,714.635 493.592,714.585 C 493.571,714.528 493.55,714.514 493.521,714.514 C 493.5,714.514 493.485,714.535 493.485,714.578 C 493.485,714.649 493.627,715.257 493.641,715.314 C 493.655,715.357 493.684,715.447 493.713,715.447 C 493.761,715.447 493.832,715.377 494.024,715.362 C 494.227,715.342 494.495,715.328 494.581,715.328 L 497.229,715.328 C 497.681,715.328 497.87,715.397 497.927,715.397 C 497.963,715.397 497.963,715.357 497.963,715.314 C 497.963,715.101 497.942,714.613 497.942,714.535 C 497.942,714.472 497.921,714.443 497.892,714.443 C 497.857,714.443 497.843,714.464 497.835,714.564 L 497.828,714.642 C 497.802,714.853 497.64,715.015 496.962,715.03 L 496.071,715.044 L 496.071,712.056 z"
               id="path1007"
               style="fill:#000000;fill-opacity:1;fill-rule:nonzero;stroke:none" /><path
               d="M 499.446,713.299 C 499.446,714.401 499.446,714.6 499.433,714.826 C 499.419,715.065 499.363,715.179 499.128,715.228 C 499.072,715.242 498.953,715.25 498.888,715.25 C 498.86,715.25 498.833,715.263 498.833,715.292 C 498.833,715.335 498.866,715.35 498.945,715.35 C 499.262,715.35 499.707,715.328 499.742,715.328 C 499.793,715.328 501.197,715.328 501.36,715.335 C 501.494,715.342 501.608,715.357 501.665,715.37 C 501.701,715.377 501.729,715.404 501.764,715.404 C 501.784,715.404 501.79,715.377 501.79,715.342 C 501.79,715.292 501.756,715.208 501.736,715.009 C 501.729,714.939 501.715,714.628 501.701,714.543 C 501.692,714.507 501.68,714.464 501.651,714.464 C 501.608,714.464 501.593,714.5 501.593,714.557 C 501.593,714.606 501.587,714.728 501.551,714.812 C 501.502,714.924 501.431,715.009 501.05,715.05 C 500.93,715.065 500.159,715.072 500.082,715.072 C 500.053,715.072 500.039,715.05 500.039,715.001 L 500.039,713.054 C 500.039,713.004 500.046,712.983 500.082,712.983 C 500.172,712.983 501.043,712.983 501.205,712.997 C 501.374,713.011 501.473,713.026 501.537,713.095 C 501.587,713.15 501.615,713.185 501.644,713.185 C 501.665,713.185 501.68,713.171 501.68,713.129 C 501.68,713.091 501.644,712.969 501.622,712.734 C 501.608,712.591 501.593,712.333 501.593,712.284 C 501.593,712.226 501.593,712.148 501.545,712.148 C 501.508,712.148 501.494,712.176 501.494,712.213 C 501.494,712.284 501.494,712.355 501.467,712.446 C 501.438,712.543 501.374,712.663 501.099,712.691 C 500.909,712.713 500.209,712.727 500.09,712.727 C 500.053,712.727 500.039,712.706 500.039,712.678 L 500.039,712.056 C 500.039,711.818 500.033,710.998 500.039,710.848 C 500.061,710.361 500.166,710.269 500.858,710.269 C 501.043,710.269 501.351,710.269 501.537,710.347 C 501.722,710.424 501.806,710.567 501.855,710.855 C 501.869,710.933 501.884,710.961 501.918,710.961 C 501.96,710.961 501.96,710.905 501.96,710.855 C 501.96,710.799 501.903,710.319 501.869,710.173 C 501.82,709.987 501.764,709.987 501.487,709.987 C 500.421,709.987 499.949,710.031 499.742,710.031 C 499.707,710.031 499.262,710.01 499.05,710.01 C 498.974,710.01 498.939,710.024 498.939,710.066 C 498.939,710.087 498.953,710.109 498.994,710.109 C 499.057,710.109 499.142,710.123 499.206,710.137 C 499.349,710.166 499.384,710.319 499.412,710.524 C 499.446,710.819 499.446,711.378 499.446,712.056 L 499.446,713.299 z"
               id="path1009"
               style="fill:#000000;fill-opacity:1;fill-rule:nonzero;stroke:none" /><path
               d="M 503.803,710.673 C 503.117,711.289 502.949,712.091 502.949,712.762 C 502.949,713.236 503.11,714.063 503.738,714.692 C 504.164,715.114 504.806,715.447 505.896,715.447 C 506.177,715.447 506.571,715.425 506.92,715.362 C 507.185,715.314 507.413,715.27 507.64,715.257 C 507.715,715.25 507.73,715.221 507.73,715.179 C 507.73,715.121 507.708,715.037 507.696,714.783 C 507.68,714.55 507.68,714.163 507.674,714.056 C 507.668,713.95 507.654,713.906 507.613,713.906 C 507.562,713.906 507.555,713.957 507.555,714.056 C 507.555,714.332 507.442,714.621 507.258,714.777 C 507.012,714.987 506.468,715.179 505.847,715.179 C 504.906,715.179 504.469,714.903 504.22,714.664 C 503.703,714.17 503.585,713.541 503.585,712.82 C 503.585,711.47 504.624,710.234 506.134,710.234 C 506.663,710.234 507.081,710.297 507.362,710.589 C 507.513,710.744 507.604,711.054 507.626,711.182 C 507.64,711.26 507.654,711.289 507.696,711.289 C 507.73,711.289 507.743,711.239 507.743,711.182 C 507.743,711.131 507.661,710.518 507.59,710.276 C 507.548,710.144 507.534,710.13 507.405,710.074 C 507.122,709.96 506.585,709.91 506.134,709.91 C 505.074,709.91 504.361,710.173 503.803,710.673"
               id="path1011"
               style="fill:#000000;fill-opacity:1;fill-rule:nonzero;stroke:none" /><path
               d="M 513.705,712.056 C 513.705,711.378 513.705,710.819 513.74,710.524 C 513.762,710.319 513.805,710.166 514.017,710.137 C 514.114,710.123 514.269,710.109 514.333,710.109 C 514.377,710.109 514.39,710.087 514.39,710.066 C 514.39,710.031 514.354,710.01 514.277,710.01 C 513.889,710.01 513.445,710.031 513.41,710.031 C 513.375,710.031 512.928,710.01 512.716,710.01 C 512.639,710.01 512.604,710.024 512.604,710.066 C 512.604,710.087 512.617,710.109 512.66,710.109 C 512.724,710.109 512.81,710.123 512.873,710.137 C 513.013,710.166 513.048,710.319 513.076,710.524 C 513.112,710.819 513.112,711.378 513.112,712.056 L 513.112,712.799 C 513.112,712.827 513.09,712.841 513.069,712.841 L 510.074,712.841 C 510.053,712.841 510.033,712.834 510.033,712.799 L 510.033,712.056 C 510.033,711.378 510.033,710.819 510.067,710.524 C 510.088,710.319 510.131,710.166 510.344,710.137 C 510.444,710.123 510.598,710.109 510.66,710.109 C 510.703,710.109 510.718,710.087 510.718,710.066 C 510.718,710.031 510.682,710.01 510.604,710.01 C 510.217,710.01 509.771,710.031 509.736,710.031 C 509.701,710.031 509.257,710.01 509.045,710.01 C 508.966,710.01 508.93,710.024 508.93,710.066 C 508.93,710.087 508.945,710.109 508.987,710.109 C 509.051,710.109 509.135,710.123 509.199,710.137 C 509.342,710.166 509.378,710.319 509.406,710.524 C 509.44,710.819 509.44,711.378 509.44,712.056 L 509.44,713.299 C 509.44,714.401 509.44,714.6 509.426,714.826 C 509.411,715.065 509.356,715.179 509.122,715.228 C 509.066,715.242 508.945,715.25 508.881,715.25 C 508.853,715.25 508.826,715.263 508.826,715.292 C 508.826,715.335 508.86,715.35 508.937,715.35 C 509.257,715.35 509.701,715.328 509.736,715.328 C 509.771,715.328 510.217,715.35 510.429,715.35 C 510.508,715.35 510.542,715.335 510.542,715.292 C 510.542,715.263 510.514,715.25 510.486,715.25 C 510.437,715.25 510.394,715.242 510.308,715.228 C 510.117,715.193 510.061,715.072 510.045,714.826 C 510.033,714.6 510.033,714.401 510.033,713.299 L 510.033,713.15 C 510.033,713.116 510.053,713.11 510.074,713.11 L 513.069,713.11 C 513.09,713.11 513.112,713.116 513.112,713.15 L 513.112,713.299 C 513.112,714.401 513.112,714.6 513.097,714.826 C 513.083,715.065 513.027,715.179 512.796,715.228 C 512.738,715.242 512.617,715.25 512.555,715.25 C 512.525,715.25 512.496,715.263 512.496,715.292 C 512.496,715.335 512.532,715.35 512.611,715.35 C 512.928,715.35 513.375,715.328 513.41,715.328 C 513.445,715.328 513.889,715.35 514.1,715.35 C 514.178,715.35 514.213,715.335 514.213,715.292 C 514.213,715.263 514.185,715.25 514.156,715.25 C 514.107,715.25 514.066,715.242 513.983,715.228 C 513.79,715.193 513.732,715.072 513.719,714.826 C 513.705,714.6 513.705,714.401 513.705,713.299 L 513.705,712.056 z"
               id="path1013"
               style="fill:#000000;fill-opacity:1;fill-rule:nonzero;stroke:none" /><path
               d="M 516.411,710.969 C 516.425,710.389 516.493,710.207 516.685,710.151 C 516.82,710.115 516.976,710.109 517.038,710.109 C 517.073,710.109 517.093,710.095 517.093,710.066 C 517.093,710.024 517.052,710.01 516.969,710.01 C 516.565,710.01 516.285,710.031 516.22,710.031 C 516.156,710.031 515.859,710.01 515.542,710.01 C 515.47,710.01 515.428,710.016 515.428,710.066 C 515.428,710.095 515.449,710.109 515.484,710.109 C 515.542,710.109 515.669,710.115 515.776,710.151 C 515.951,710.2 515.986,710.403 515.986,711.047 L 515.994,715.093 C 515.994,715.37 516.015,715.447 516.071,715.447 C 516.128,715.447 516.249,715.292 516.32,715.221 C 516.425,715.101 517.478,713.964 518.565,712.799 C 519.265,712.049 520.033,711.19 520.26,710.954 L 520.181,714.543 C 520.175,715.001 520.124,715.158 519.907,715.214 C 519.78,715.242 519.617,715.25 519.56,715.25 C 519.511,715.25 519.503,715.27 519.503,715.299 C 519.503,715.342 519.56,715.35 519.644,715.35 C 519.962,715.35 520.302,715.328 520.38,715.328 C 520.459,715.328 520.691,715.35 520.98,715.35 C 521.058,715.35 521.107,715.342 521.107,715.299 C 521.107,715.27 521.079,715.25 521.031,715.25 C 520.994,715.25 520.945,715.25 520.86,715.228 C 520.626,715.179 520.597,715.022 520.597,714.6 L 520.583,710.461 C 520.583,709.994 520.569,709.96 520.52,709.96 C 520.465,709.96 520.381,710.038 520.004,710.412 C 519.928,710.483 518.91,711.519 518.163,712.325 C 517.343,713.207 516.544,714.098 516.32,714.353 L 516.411,710.969 z"
               id="path1015"
               style="fill:#000000;fill-opacity:1;fill-rule:nonzero;stroke:none" /><path
               d="M 523.5,712.056 C 523.5,711.378 523.5,710.819 523.536,710.524 C 523.557,710.319 523.599,710.166 523.813,710.137 C 523.911,710.123 524.066,710.109 524.129,710.109 C 524.171,710.109 524.185,710.087 524.185,710.066 C 524.185,710.031 524.15,710.01 524.073,710.01 C 523.684,710.01 523.24,710.031 523.205,710.031 C 523.169,710.031 522.725,710.01 522.512,710.01 C 522.433,710.01 522.398,710.024 522.398,710.066 C 522.398,710.087 522.412,710.109 522.454,710.109 C 522.519,710.109 522.604,710.123 522.668,710.137 C 522.808,710.166 522.845,710.319 522.872,710.524 C 522.906,710.819 522.906,711.378 522.906,712.056 L 522.906,713.299 C 522.906,714.401 522.906,714.6 522.893,714.826 C 522.88,715.065 522.808,715.186 522.654,715.221 C 522.576,715.242 522.483,715.25 522.433,715.25 C 522.405,715.25 522.377,715.263 522.377,715.292 C 522.377,715.335 522.412,715.35 522.49,715.35 C 522.725,715.35 523.169,715.328 523.205,715.328 C 523.24,715.328 523.684,715.35 523.898,715.35 C 523.974,715.35 524.01,715.335 524.01,715.292 C 524.01,715.263 523.98,715.25 523.953,715.25 C 523.904,715.25 523.862,715.242 523.778,715.228 C 523.584,715.193 523.528,715.072 523.514,714.826 C 523.5,714.6 523.5,714.401 523.5,713.299 L 523.5,712.056 z"
               id="path1017"
               style="fill:#000000;fill-opacity:1;fill-rule:nonzero;stroke:none" /><path
               d="M 525.88,712.883 C 525.88,714.429 526.765,715.208 527.944,715.208 C 529.059,715.208 530.09,714.295 530.09,712.599 C 530.09,710.545 528.776,710.178 528.14,710.178 C 526.869,710.178 525.88,711.239 525.88,712.883 M 530.267,709.494 C 531.411,708.865 532.32,708.546 533.177,708.546 C 534.222,708.546 535.013,708.851 535.415,709.034 C 535.459,709.056 535.473,709.076 535.473,709.104 C 535.473,709.125 535.459,709.146 535.43,709.146 C 535.408,709.146 535.373,709.132 535.33,709.117 C 534.845,708.922 534.293,708.844 533.939,708.844 C 533.586,708.844 532.514,708.88 530.966,709.674 L 529.517,710.424 C 529.984,710.732 530.769,711.555 530.769,712.799 C 530.769,714.436 529.582,715.447 527.994,715.447 C 526.044,715.447 525.21,713.829 525.21,712.684 C 525.21,711.414 526.015,709.91 527.973,709.91 C 528.345,709.91 528.826,710.016 529.08,710.151 L 530.267,709.494 z"
               id="path1019"
               style="fill:#000000;fill-opacity:1;fill-rule:nonzero;stroke:none" /><g
               id="g1021"><g
                 clip-path="url(#clipPath1025)"
                 id="g1023"><path
                   d="M 532.104,713.299 C 532.104,714.401 532.104,714.6 532.09,714.826 C 532.076,715.065 532.019,715.179 531.784,715.228 C 531.728,715.242 531.608,715.25 531.545,715.25 C 531.518,715.25 531.488,715.263 531.488,715.292 C 531.488,715.335 531.525,715.35 531.601,715.35 C 531.92,715.35 532.35,715.328 532.414,715.328 C 532.478,715.328 532.899,715.35 533.113,715.35 C 533.192,715.35 533.226,715.335 533.226,715.292 C 533.226,715.263 533.197,715.25 533.171,715.25 C 533.12,715.25 533.078,715.242 532.992,715.228 C 532.801,715.201 532.746,715.072 532.732,714.826 C 532.718,714.6 532.718,714.401 532.718,713.299 L 532.718,712.311 C 532.718,711.295 532.943,710.855 533.249,710.567 C 533.593,710.241 533.912,710.178 534.314,710.178 C 534.744,710.178 535.167,710.382 535.422,710.688 C 535.747,711.089 535.831,711.69 535.831,712.418 L 535.831,713.299 C 535.831,714.401 535.831,714.6 535.817,714.826 C 535.803,715.065 535.747,715.179 535.515,715.228 C 535.459,715.242 535.338,715.25 535.274,715.25 C 535.244,715.25 535.217,715.263 535.217,715.292 C 535.217,715.335 535.251,715.35 535.33,715.35 C 535.649,715.35 536.038,715.328 536.08,715.328 C 536.129,715.328 536.46,715.35 536.674,715.35 C 536.751,715.35 536.785,715.335 536.785,715.292 C 536.785,715.263 536.758,715.25 536.73,715.25 C 536.681,715.25 536.638,715.25 536.552,715.228 C 536.36,715.193 536.305,715.072 536.291,714.826 C 536.276,714.6 536.276,714.401 536.276,713.299 L 536.276,712.543 C 536.276,711.783 536.192,710.933 535.626,710.432 C 535.119,709.98 534.589,709.91 534.171,709.91 C 533.933,709.91 533.219,709.938 532.718,710.412 C 532.371,710.744 532.104,711.239 532.104,712.269 L 532.104,713.299 z"
                   id="path1029"
                   style="fill:#000000;fill-opacity:1;fill-rule:nonzero;stroke:none" /><path
                   d="M 538.374,713.299 C 538.374,714.401 538.374,714.6 538.36,714.826 C 538.346,715.065 538.29,715.179 538.056,715.228 C 538.001,715.242 537.881,715.25 537.817,715.25 C 537.788,715.25 537.76,715.263 537.76,715.292 C 537.76,715.335 537.795,715.35 537.873,715.35 C 538.19,715.35 538.636,715.328 538.671,715.328 C 538.719,715.328 540.126,715.328 540.288,715.335 C 540.422,715.342 540.534,715.357 540.592,715.37 C 540.627,715.377 540.656,715.404 540.691,715.404 C 540.714,715.404 540.719,715.377 540.719,715.342 C 540.719,715.292 540.684,715.208 540.662,715.009 C 540.656,714.939 540.641,714.628 540.627,714.543 C 540.62,714.507 540.606,714.464 540.578,714.464 C 540.534,714.464 540.52,714.5 540.52,714.557 C 540.52,714.606 540.514,714.728 540.478,714.812 C 540.43,714.924 540.358,715.009 539.978,715.05 C 539.858,715.065 539.088,715.072 539.01,715.072 C 538.983,715.072 538.967,715.05 538.967,715.001 L 538.967,713.054 C 538.967,713.004 538.976,712.983 539.01,712.983 C 539.101,712.983 539.969,712.983 540.133,712.997 C 540.302,713.011 540.401,713.026 540.463,713.095 C 540.514,713.15 540.541,713.185 540.57,713.185 C 540.592,713.185 540.606,713.171 540.606,713.129 C 540.606,713.091 540.57,712.969 540.549,712.734 C 540.534,712.591 540.52,712.333 540.52,712.284 C 540.52,712.226 540.52,712.148 540.471,712.148 C 540.437,712.148 540.422,712.176 540.422,712.213 C 540.422,712.284 540.422,712.355 540.395,712.446 C 540.365,712.543 540.302,712.663 540.027,712.691 C 539.837,712.713 539.137,712.727 539.018,712.727 C 538.983,712.727 538.967,712.706 538.967,712.678 L 538.967,712.056 C 538.967,711.818 538.962,710.998 538.967,710.848 C 538.988,710.361 539.096,710.269 539.786,710.269 C 539.969,710.269 540.281,710.269 540.463,710.347 C 540.649,710.424 540.735,710.567 540.783,710.855 C 540.798,710.933 540.812,710.961 540.846,710.961 C 540.889,710.961 540.889,710.905 540.889,710.855 C 540.889,710.799 540.833,710.319 540.798,710.173 C 540.749,709.987 540.691,709.987 540.415,709.987 C 539.347,709.987 538.876,710.031 538.671,710.031 C 538.636,710.031 538.19,710.01 537.979,710.01 C 537.902,710.01 537.867,710.024 537.867,710.066 C 537.867,710.087 537.881,710.109 537.923,710.109 C 537.987,710.109 538.071,710.123 538.132,710.137 C 538.275,710.166 538.31,710.319 538.339,710.524 C 538.374,710.819 538.374,711.378 538.374,712.056 L 538.374,713.299 z"
                   id="path1031"
                   style="fill:#000000;fill-opacity:1;fill-rule:nonzero;stroke:none" /></g></g><path
               d="M 447.725,704.826 C 447.725,705.927 447.725,706.124 447.711,706.351 C 447.697,706.592 447.641,706.703 447.407,706.752 C 447.351,706.766 447.231,706.773 447.167,706.773 C 447.139,706.773 447.111,706.787 447.111,706.815 C 447.111,706.859 447.146,706.873 447.224,706.873 C 447.542,706.873 447.986,706.85 448.022,706.85 C 448.163,706.85 449.596,706.85 449.759,706.859 C 449.893,706.866 450.006,706.866 450.07,706.887 C 450.113,706.901 450.141,706.929 450.169,706.929 C 450.198,706.929 450.211,706.901 450.211,706.866 C 450.211,706.815 450.176,706.731 450.154,706.535 C 450.148,706.464 450.134,706.152 450.119,706.07 C 450.113,706.035 450.098,705.991 450.063,705.991 C 450.028,705.991 450.014,706.026 450.014,706.077 C 450.014,706.132 449.992,706.251 449.95,706.343 C 449.908,706.435 449.745,706.563 449.47,706.57 L 448.382,706.592 C 448.34,706.592 448.318,706.57 448.318,706.513 L 448.318,704.563 C 448.318,704.519 448.326,704.5 448.368,704.5 L 449.272,704.507 C 449.392,704.507 449.491,704.507 449.59,704.514 C 449.759,704.528 449.851,704.549 449.914,704.641 C 449.943,704.678 449.964,704.713 449.992,704.713 C 450.02,704.713 450.028,704.691 450.028,704.655 C 450.028,704.613 449.992,704.491 449.971,704.262 C 449.957,704.12 449.943,703.835 449.943,703.786 C 449.943,703.725 449.943,703.653 449.893,703.653 C 449.858,703.653 449.844,703.682 449.844,703.717 C 449.837,703.786 449.83,703.884 449.802,703.97 C 449.766,704.069 449.654,704.197 449.434,704.225 C 449.258,704.246 448.488,704.246 448.368,704.246 C 448.332,704.246 448.318,704.234 448.318,704.183 L 448.318,703.582 C 448.318,702.905 448.318,702.347 448.354,702.049 C 448.375,701.845 448.417,701.689 448.629,701.661 C 448.728,701.646 448.884,701.632 448.947,701.632 C 448.989,701.632 449.003,701.611 449.003,701.59 C 449.003,701.553 448.968,701.534 448.89,701.534 C 448.502,701.534 448.057,701.553 448.022,701.553 C 447.986,701.553 447.542,701.534 447.33,701.534 C 447.251,701.534 447.217,701.546 447.217,701.59 C 447.217,701.611 447.231,701.632 447.273,701.632 C 447.337,701.632 447.421,701.646 447.486,701.661 C 447.626,701.689 447.662,701.845 447.69,702.049 C 447.725,702.347 447.725,702.905 447.725,703.582 L 447.725,704.826 z"
               id="path1033"
               style="fill:#000000;fill-opacity:1;fill-rule:nonzero;stroke:none" /><path
               d="M 453.954,707.835 C 453.989,707.771 453.954,707.749 453.926,707.749 C 453.905,707.749 453.834,707.764 453.714,707.749 C 453.368,707.714 452.874,707.551 452.641,707.451 C 452.591,707.43 452.549,707.416 452.535,707.416 C 452.521,707.416 452.499,707.43 452.499,707.459 C 452.499,707.48 452.513,707.495 452.549,707.516 C 452.803,707.693 453.46,708.088 453.51,708.116 C 453.629,708.187 453.672,708.209 453.707,708.209 C 453.728,708.209 453.742,708.194 453.777,708.144 C 453.827,708.074 453.876,707.974 453.954,707.835 M 451.906,704.826 C 451.906,705.927 451.906,706.124 451.892,706.351 C 451.878,706.592 451.821,706.703 451.589,706.752 C 451.531,706.766 451.412,706.773 451.348,706.773 C 451.32,706.773 451.292,706.787 451.292,706.815 C 451.292,706.859 451.327,706.873 451.405,706.873 C 451.723,706.873 452.167,706.85 452.203,706.85 C 452.252,706.85 453.658,706.85 453.821,706.859 C 453.954,706.866 454.067,706.88 454.124,706.894 C 454.159,706.901 454.188,706.929 454.223,706.929 C 454.244,706.929 454.251,706.901 454.251,706.866 C 454.251,706.815 454.216,706.731 454.195,706.535 C 454.188,706.464 454.173,706.152 454.159,706.07 C 454.152,706.035 454.138,705.991 454.11,705.991 C 454.067,705.991 454.053,706.026 454.053,706.083 C 454.053,706.132 454.046,706.251 454.011,706.336 C 453.961,706.451 453.89,706.535 453.51,706.577 C 453.389,706.592 452.62,706.599 452.542,706.599 C 452.513,706.599 452.499,706.577 452.499,706.528 L 452.499,704.578 C 452.499,704.528 452.506,704.507 452.542,704.507 C 452.634,704.507 453.502,704.507 453.665,704.519 C 453.834,704.535 453.933,704.549 453.996,704.619 C 454.046,704.678 454.074,704.713 454.103,704.713 C 454.124,704.713 454.138,704.699 454.138,704.655 C 454.138,704.613 454.103,704.491 454.081,704.262 C 454.067,704.12 454.053,703.856 454.053,703.808 C 454.053,703.752 454.053,703.676 454.003,703.676 C 453.969,703.676 453.954,703.704 453.954,703.739 C 453.954,703.808 453.954,703.877 453.926,703.97 C 453.898,704.069 453.834,704.19 453.559,704.218 C 453.368,704.239 452.669,704.253 452.549,704.253 C 452.513,704.253 452.499,704.234 452.499,704.204 L 452.499,703.582 C 452.499,703.341 452.492,702.524 452.499,702.375 C 452.521,701.887 452.627,701.796 453.319,701.796 C 453.502,701.796 453.813,701.796 453.996,701.875 C 454.18,701.952 454.265,702.091 454.315,702.382 C 454.329,702.46 454.343,702.489 454.378,702.489 C 454.42,702.489 454.42,702.431 454.42,702.382 C 454.42,702.325 454.364,701.845 454.329,701.696 C 454.279,701.512 454.223,701.512 453.947,701.512 C 452.881,701.512 452.407,701.553 452.203,701.553 C 452.167,701.553 451.723,701.534 451.511,701.534 C 451.433,701.534 451.397,701.546 451.397,701.59 C 451.397,701.611 451.412,701.632 451.454,701.632 C 451.517,701.632 451.602,701.646 451.666,701.661 C 451.807,701.689 451.843,701.845 451.871,702.049 C 451.906,702.347 451.906,702.905 451.906,703.582 L 451.906,704.826 z"
               id="path1035"
               style="fill:#000000;fill-opacity:1;fill-rule:nonzero;stroke:none" /><path
               d="M 456.808,704.939 C 456.808,705.484 456.808,706.201 456.815,706.443 C 456.815,706.521 456.835,706.556 456.899,706.584 C 456.956,706.612 457.217,706.635 457.358,706.635 C 458.199,706.635 459.005,706.535 459.667,705.834 C 459.958,705.531 460.346,704.952 460.346,704.055 C 460.346,703.405 460.148,702.726 459.781,702.368 C 459.364,701.952 458.757,701.71 458.1,701.71 C 457.267,701.71 456.991,701.859 456.899,701.993 C 456.842,702.071 456.828,702.353 456.822,702.531 C 456.815,702.662 456.808,703.312 456.808,704.062 L 456.808,704.939 z M 456.214,703.582 C 456.214,702.905 456.214,702.347 456.178,702.049 C 456.151,701.845 456.115,701.689 455.973,701.661 C 455.91,701.646 455.826,701.632 455.762,701.632 C 455.72,701.632 455.706,701.611 455.706,701.59 C 455.706,701.546 455.741,701.534 455.819,701.534 C 456.03,701.534 456.476,701.553 456.511,701.553 C 456.581,701.553 457.471,701.47 458.079,701.47 C 459.279,701.47 459.914,701.966 460.219,702.282 C 460.614,702.698 460.981,703.384 460.981,704.274 C 460.981,705.114 460.649,705.7 460.296,706.07 C 459.456,706.937 458.164,706.873 457.465,706.873 C 457.04,706.873 456.596,706.85 456.511,706.85 C 456.475,706.85 456.03,706.873 455.713,706.873 C 455.635,706.873 455.6,706.859 455.6,706.815 C 455.6,706.787 455.628,706.773 455.656,706.773 C 455.72,706.773 455.84,706.766 455.896,706.752 C 456.129,706.703 456.186,706.592 456.2,706.351 C 456.214,706.124 456.214,705.927 456.214,704.826 L 456.214,703.582 z"
               id="path1037"
               style="fill:#000000;fill-opacity:1;fill-rule:nonzero;stroke:none" /><path
               d="M 464.456,707.835 C 464.491,707.771 464.456,707.749 464.428,707.749 C 464.407,707.749 464.336,707.764 464.216,707.749 C 463.87,707.714 463.375,707.551 463.142,707.451 C 463.093,707.43 463.05,707.416 463.037,707.416 C 463.023,707.416 463.001,707.43 463.001,707.459 C 463.001,707.48 463.015,707.495 463.05,707.516 C 463.305,707.693 463.961,708.088 464.011,708.116 C 464.131,708.187 464.174,708.209 464.209,708.209 C 464.23,708.209 464.244,708.194 464.279,708.144 C 464.329,708.074 464.378,707.974 464.456,707.835 M 462.408,704.826 C 462.408,705.927 462.408,706.124 462.394,706.351 C 462.38,706.592 462.323,706.703 462.09,706.752 C 462.034,706.766 461.914,706.773 461.85,706.773 C 461.822,706.773 461.794,706.787 461.794,706.815 C 461.794,706.859 461.829,706.873 461.907,706.873 C 462.224,706.873 462.669,706.85 462.705,706.85 C 462.754,706.85 464.159,706.85 464.322,706.859 C 464.456,706.866 464.569,706.88 464.626,706.894 C 464.661,706.901 464.689,706.929 464.724,706.929 C 464.746,706.929 464.753,706.901 464.753,706.866 C 464.753,706.815 464.717,706.731 464.696,706.535 C 464.689,706.464 464.675,706.152 464.661,706.07 C 464.653,706.035 464.64,705.991 464.612,705.991 C 464.569,705.991 464.555,706.026 464.555,706.083 C 464.555,706.132 464.548,706.251 464.512,706.336 C 464.463,706.451 464.392,706.535 464.011,706.577 C 463.891,706.592 463.121,706.599 463.043,706.599 C 463.015,706.599 463.001,706.577 463.001,706.528 L 463.001,704.578 C 463.001,704.528 463.009,704.507 463.043,704.507 C 463.135,704.507 464.004,704.507 464.167,704.519 C 464.336,704.535 464.435,704.549 464.499,704.619 C 464.548,704.678 464.576,704.713 464.604,704.713 C 464.626,704.713 464.64,704.699 464.64,704.655 C 464.64,704.613 464.604,704.491 464.583,704.262 C 464.569,704.12 464.555,703.856 464.555,703.808 C 464.555,703.752 464.555,703.676 464.505,703.676 C 464.47,703.676 464.456,703.704 464.456,703.739 C 464.456,703.808 464.456,703.877 464.428,703.97 C 464.4,704.069 464.336,704.19 464.06,704.218 C 463.87,704.239 463.171,704.253 463.05,704.253 C 463.015,704.253 463.001,704.234 463.001,704.204 L 463.001,703.582 C 463.001,703.341 462.994,702.524 463.001,702.375 C 463.023,701.887 463.128,701.796 463.821,701.796 C 464.004,701.796 464.315,701.796 464.499,701.875 C 464.682,701.952 464.766,702.091 464.816,702.382 C 464.83,702.46 464.845,702.489 464.88,702.489 C 464.922,702.489 464.922,702.431 464.922,702.382 C 464.922,702.325 464.865,701.845 464.83,701.696 C 464.781,701.512 464.724,701.512 464.449,701.512 C 463.382,701.512 462.91,701.553 462.705,701.553 C 462.669,701.553 462.224,701.534 462.012,701.534 C 461.934,701.534 461.9,701.546 461.9,701.59 C 461.9,701.611 461.914,701.632 461.956,701.632 C 462.019,701.632 462.104,701.646 462.168,701.661 C 462.309,701.689 462.344,701.845 462.372,702.049 C 462.408,702.347 462.408,702.905 462.408,703.582 L 462.408,704.826 z"
               id="path1039"
               style="fill:#000000;fill-opacity:1;fill-rule:nonzero;stroke:none" /><path
               d="M 467.281,706.521 C 467.281,706.563 467.302,706.592 467.338,706.605 C 467.408,706.628 467.599,706.649 467.811,706.649 C 468.567,706.649 469.032,706.117 469.032,705.235 C 469.032,704.699 468.849,704.318 468.601,704.148 C 468.439,704.033 468.241,704.013 468.072,704.013 C 467.761,704.013 467.436,704.062 467.33,704.126 C 467.295,704.148 467.281,704.175 467.281,704.211 L 467.281,706.521 z M 466.716,703.582 C 466.716,702.905 466.716,702.347 466.681,702.049 C 466.652,701.845 466.617,701.689 466.476,701.661 C 466.413,701.646 466.327,701.632 466.264,701.632 C 466.222,701.632 466.207,701.611 466.207,701.59 C 466.207,701.546 466.243,701.534 466.32,701.534 C 466.532,701.534 466.978,701.553 466.984,701.553 C 467.019,701.553 467.465,701.534 467.853,701.534 C 467.931,701.534 467.966,701.553 467.966,701.59 C 467.966,701.611 467.952,701.632 467.91,701.632 C 467.846,701.632 467.691,701.646 467.591,701.661 C 467.38,701.689 467.338,701.845 467.316,702.049 C 467.281,702.347 467.281,702.905 467.281,703.582 L 467.281,703.752 C 467.281,703.786 467.295,703.808 467.33,703.808 L 468.199,703.794 C 468.241,703.794 468.263,703.779 468.291,703.752 C 468.433,703.568 468.764,703.096 469.061,702.705 C 469.463,702.176 469.711,701.831 470.014,701.667 C 470.198,701.568 470.374,701.534 470.77,701.534 L 471.271,701.534 C 471.399,701.534 471.44,701.546 471.44,701.59 C 471.44,701.611 471.413,701.632 471.377,701.632 C 471.335,701.632 471.236,701.632 471.101,701.654 C 470.925,701.682 470.622,701.761 470.24,702.16 C 469.831,702.6 469.35,703.228 468.771,703.97 C 469.407,704.556 469.625,705.077 469.625,705.601 C 469.625,706.09 469.315,706.435 469.139,706.563 C 468.764,706.829 468.291,706.873 467.846,706.873 C 467.627,706.873 467.09,706.85 467.012,706.85 C 466.978,706.85 466.532,706.873 466.214,706.873 C 466.137,706.873 466.102,706.859 466.102,706.815 C 466.102,706.787 466.129,706.773 466.158,706.773 C 466.222,706.773 466.342,706.766 466.398,706.752 C 466.632,706.703 466.688,706.592 466.701,706.351 C 466.716,706.124 466.716,705.927 466.716,704.826 L 466.716,703.582 z"
               id="path1041"
               style="fill:#000000;fill-opacity:1;fill-rule:nonzero;stroke:none" /><path
               d="M 472.443,703.87 C 472.423,703.87 472.408,703.884 472.423,703.921 L 473.044,705.828 C 473.079,705.935 473.114,705.935 473.149,705.828 L 473.821,703.921 C 473.828,703.891 473.828,703.87 473.792,703.87 L 472.443,703.87 z M 471.455,702.312 C 471.328,701.959 471.186,701.689 470.862,701.646 C 470.805,701.639 470.706,701.632 470.656,701.632 C 470.622,701.632 470.593,701.618 470.593,701.59 C 470.593,701.546 470.635,701.534 470.727,701.534 C 471.059,701.534 471.447,701.553 471.525,701.553 C 471.603,701.553 471.907,701.534 472.076,701.534 C 472.14,701.534 472.182,701.546 472.182,701.59 C 472.182,701.618 472.161,701.632 472.112,701.632 L 472.041,701.632 C 471.921,701.632 471.772,701.696 471.772,701.838 C 471.772,701.966 471.808,702.132 471.871,702.312 L 472.295,703.562 C 472.309,703.596 472.33,703.617 472.366,703.617 L 473.884,703.617 C 473.92,703.617 473.934,703.604 473.948,703.576 L 474.605,701.838 C 474.647,701.725 474.605,701.661 474.562,701.646 C 474.534,701.639 474.513,701.625 474.513,701.597 C 474.513,701.553 474.59,701.553 474.725,701.546 C 475.212,701.534 475.728,701.534 475.833,701.534 C 475.911,701.534 475.975,701.546 475.975,701.59 C 475.975,701.625 475.947,701.632 475.904,701.632 C 475.833,701.632 475.728,701.639 475.621,701.674 C 475.473,701.717 475.269,701.831 475.015,702.46 C 474.584,703.533 473.474,706.451 473.368,706.718 C 473.284,706.937 473.256,706.972 473.213,706.972 C 473.171,706.972 473.143,706.929 473.058,706.697 L 471.455,702.312 z"
               id="path1043"
               style="fill:#000000;fill-opacity:1;fill-rule:nonzero;stroke:none" /><path
               d="M 477.578,703.568 C 477.578,702.531 477.607,702.076 477.733,701.952 C 477.846,701.838 478.03,701.789 478.581,701.789 C 478.955,701.789 479.265,701.796 479.435,702.001 C 479.527,702.111 479.598,702.289 479.619,702.424 C 479.626,702.482 479.64,702.517 479.683,702.517 C 479.718,702.517 479.725,702.489 479.725,702.41 C 479.725,702.332 479.675,701.91 479.619,701.703 C 479.57,701.539 479.549,701.512 479.174,701.512 C 478.157,701.512 477.691,701.553 477.281,701.553 C 477.218,701.553 476.801,701.534 476.589,701.534 C 476.511,701.534 476.476,701.546 476.476,701.59 C 476.476,701.611 476.49,701.632 476.533,701.632 C 476.596,701.632 476.681,701.646 476.744,701.661 C 476.886,701.689 476.921,701.845 476.95,702.049 C 476.985,702.347 476.985,702.905 476.985,703.582 L 476.985,704.826 C 476.985,705.927 476.985,706.124 476.97,706.351 C 476.956,706.592 476.9,706.703 476.667,706.752 C 476.61,706.766 476.49,706.773 476.426,706.773 C 476.398,706.773 476.37,706.787 476.37,706.815 C 476.37,706.859 476.406,706.873 476.484,706.873 C 476.801,706.873 477.246,706.85 477.281,706.85 C 477.316,706.85 477.833,706.873 478.044,706.873 C 478.122,706.873 478.157,706.859 478.157,706.815 C 478.157,706.787 478.129,706.773 478.1,706.773 C 478.051,706.773 477.952,706.766 477.867,706.752 C 477.663,706.718 477.607,706.599 477.592,706.351 C 477.578,706.124 477.578,705.927 477.578,704.826 L 477.578,703.568 z"
               id="path1045"
               style="fill:#000000;fill-opacity:1;fill-rule:nonzero;stroke:none" /><path
               d="M 481.165,704.826 C 481.165,705.927 481.165,706.124 481.151,706.351 C 481.137,706.592 481.081,706.703 480.848,706.752 C 480.791,706.766 480.671,706.773 480.607,706.773 C 480.579,706.773 480.551,706.787 480.551,706.815 C 480.551,706.859 480.587,706.873 480.664,706.873 C 480.982,706.873 481.427,706.85 481.462,706.85 C 481.511,706.85 482.918,706.85 483.08,706.859 C 483.214,706.866 483.327,706.88 483.383,706.894 C 483.418,706.901 483.446,706.929 483.482,706.929 C 483.504,706.929 483.51,706.901 483.51,706.866 C 483.51,706.815 483.475,706.731 483.454,706.535 C 483.446,706.464 483.432,706.152 483.418,706.07 C 483.411,706.035 483.397,705.991 483.369,705.991 C 483.327,705.991 483.313,706.026 483.313,706.083 C 483.313,706.132 483.306,706.251 483.27,706.336 C 483.221,706.451 483.15,706.535 482.769,706.577 C 482.649,706.592 481.879,706.599 481.801,706.599 C 481.773,706.599 481.758,706.577 481.758,706.528 L 481.758,704.578 C 481.758,704.528 481.766,704.507 481.801,704.507 C 481.893,704.507 482.762,704.507 482.924,704.519 C 483.094,704.535 483.193,704.549 483.256,704.619 C 483.306,704.678 483.334,704.713 483.362,704.713 C 483.383,704.713 483.397,704.699 483.397,704.655 C 483.397,704.613 483.362,704.491 483.341,704.262 C 483.327,704.12 483.313,703.856 483.313,703.808 C 483.313,703.752 483.313,703.676 483.263,703.676 C 483.228,703.676 483.214,703.704 483.214,703.739 C 483.214,703.808 483.214,703.877 483.186,703.97 C 483.157,704.069 483.094,704.19 482.818,704.218 C 482.627,704.239 481.928,704.253 481.808,704.253 C 481.773,704.253 481.758,704.234 481.758,704.204 L 481.758,703.582 C 481.758,703.341 481.752,702.524 481.758,702.375 C 481.78,701.887 481.887,701.796 482.578,701.796 C 482.762,701.796 483.072,701.796 483.256,701.875 C 483.439,701.952 483.525,702.091 483.574,702.382 C 483.588,702.46 483.602,702.489 483.638,702.489 C 483.68,702.489 483.68,702.431 483.68,702.382 C 483.68,702.325 483.624,701.845 483.588,701.696 C 483.539,701.512 483.482,701.512 483.207,701.512 C 482.14,701.512 481.667,701.553 481.462,701.553 C 481.427,701.553 480.982,701.534 480.77,701.534 C 480.692,701.534 480.657,701.546 480.657,701.59 C 480.657,701.611 480.671,701.632 480.713,701.632 C 480.777,701.632 480.862,701.646 480.925,701.661 C 481.067,701.689 481.101,701.845 481.131,702.049 C 481.165,702.347 481.165,702.905 481.165,703.582 L 481.165,704.826 z"
               id="path1047"
               style="fill:#000000;fill-opacity:1;fill-rule:nonzero;stroke:none" /><path
               d="M 488.362,704.939 C 488.362,705.484 488.362,706.201 488.369,706.443 C 488.369,706.521 488.39,706.556 488.454,706.584 C 488.51,706.612 488.772,706.635 488.913,706.635 C 489.753,706.635 490.558,706.535 491.222,705.834 C 491.512,705.531 491.9,704.952 491.9,704.055 C 491.9,703.405 491.702,702.726 491.335,702.368 C 490.919,701.952 490.311,701.71 489.654,701.71 C 488.821,701.71 488.546,701.859 488.454,701.993 C 488.397,702.071 488.383,702.353 488.376,702.531 C 488.369,702.662 488.362,703.312 488.362,704.062 L 488.362,704.939 z M 487.768,703.582 C 487.768,702.905 487.768,702.347 487.734,702.049 C 487.705,701.845 487.67,701.689 487.529,701.661 C 487.465,701.646 487.38,701.632 487.317,701.632 C 487.275,701.632 487.261,701.611 487.261,701.59 C 487.261,701.546 487.296,701.534 487.373,701.534 C 487.585,701.534 488.031,701.553 488.065,701.553 C 488.136,701.553 489.026,701.47 489.634,701.47 C 490.833,701.47 491.47,701.966 491.774,702.282 C 492.169,702.698 492.536,703.384 492.536,704.274 C 492.536,705.114 492.204,705.7 491.85,706.07 C 491.01,706.937 489.718,706.873 489.019,706.873 C 488.595,706.873 488.151,706.85 488.065,706.85 C 488.031,706.85 487.585,706.873 487.268,706.873 C 487.19,706.873 487.155,706.859 487.155,706.815 C 487.155,706.787 487.183,706.773 487.21,706.773 C 487.275,706.773 487.395,706.766 487.451,706.752 C 487.684,706.703 487.741,706.592 487.755,706.351 C 487.768,706.124 487.768,705.927 487.768,704.826 L 487.768,703.582 z"
               id="path1049"
               style="fill:#000000;fill-opacity:1;fill-rule:nonzero;stroke:none" /><path
               d="M 494.245,704.826 C 494.245,705.927 494.245,706.124 494.231,706.351 C 494.216,706.592 494.161,706.703 493.927,706.752 C 493.871,706.766 493.75,706.773 493.687,706.773 C 493.659,706.773 493.63,706.787 493.63,706.815 C 493.63,706.859 493.666,706.873 493.744,706.873 C 494.061,706.873 494.506,706.85 494.542,706.85 C 494.591,706.85 495.996,706.85 496.158,706.859 C 496.293,706.866 496.407,706.88 496.463,706.894 C 496.499,706.901 496.526,706.929 496.561,706.929 C 496.583,706.929 496.591,706.901 496.591,706.866 C 496.591,706.815 496.554,706.731 496.533,706.535 C 496.526,706.464 496.512,706.152 496.499,706.07 C 496.492,706.035 496.478,705.991 496.451,705.991 C 496.407,705.991 496.392,706.026 496.392,706.083 C 496.392,706.132 496.386,706.251 496.351,706.336 C 496.3,706.451 496.23,706.535 495.849,706.577 C 495.729,706.592 494.958,706.599 494.881,706.599 C 494.853,706.599 494.839,706.577 494.839,706.528 L 494.839,704.578 C 494.839,704.528 494.845,704.507 494.881,704.507 C 494.972,704.507 495.841,704.507 496.004,704.519 C 496.173,704.535 496.272,704.549 496.336,704.619 C 496.386,704.678 496.414,704.713 496.442,704.713 C 496.463,704.713 496.478,704.699 496.478,704.655 C 496.478,704.613 496.442,704.491 496.421,704.262 C 496.407,704.12 496.392,703.856 496.392,703.808 C 496.392,703.752 496.392,703.676 496.343,703.676 C 496.308,703.676 496.293,703.704 496.293,703.739 C 496.293,703.808 496.293,703.877 496.265,703.97 C 496.237,704.069 496.173,704.19 495.899,704.218 C 495.707,704.239 495.007,704.253 494.888,704.253 C 494.853,704.253 494.839,704.234 494.839,704.204 L 494.839,703.582 C 494.839,703.341 494.831,702.524 494.839,702.375 C 494.86,701.887 494.963,701.796 495.657,701.796 C 495.841,701.796 496.152,701.796 496.336,701.875 C 496.519,701.952 496.604,702.091 496.653,702.382 C 496.666,702.46 496.68,702.489 496.715,702.489 C 496.759,702.489 496.759,702.431 496.759,702.382 C 496.759,702.325 496.701,701.845 496.666,701.696 C 496.618,701.512 496.561,701.512 496.287,701.512 C 495.22,701.512 494.748,701.553 494.542,701.553 C 494.506,701.553 494.061,701.534 493.85,701.534 C 493.772,701.534 493.737,701.546 493.737,701.59 C 493.737,701.611 493.75,701.632 493.793,701.632 C 493.857,701.632 493.942,701.646 494.005,701.661 C 494.147,701.689 494.181,701.845 494.209,702.049 C 494.245,702.347 494.245,702.905 494.245,703.582 L 494.245,704.826 z"
               id="path1051"
               style="fill:#000000;fill-opacity:1;fill-rule:nonzero;stroke:none" /><path
               d="M 501.442,703.568 C 501.442,702.531 501.47,702.076 501.598,701.952 C 501.71,701.838 501.893,701.789 502.445,701.789 C 502.819,701.789 503.128,701.796 503.299,702.001 C 503.392,702.111 503.462,702.289 503.483,702.424 C 503.49,702.482 503.504,702.517 503.546,702.517 C 503.581,702.517 503.588,702.489 503.588,702.41 C 503.588,702.332 503.539,701.91 503.483,701.703 C 503.435,701.539 503.413,701.512 503.038,701.512 C 502.02,701.512 501.555,701.553 501.146,701.553 C 501.082,701.553 500.665,701.534 500.454,701.534 C 500.375,701.534 500.339,701.546 500.339,701.59 C 500.339,701.611 500.354,701.632 500.396,701.632 C 500.46,701.632 500.546,701.646 500.608,701.661 C 500.748,701.689 500.784,701.845 500.812,702.049 C 500.849,702.347 500.849,702.905 500.849,703.582 L 500.849,704.826 C 500.849,705.927 500.849,706.124 500.833,706.351 C 500.819,706.592 500.763,706.703 500.531,706.752 C 500.475,706.766 500.354,706.773 500.291,706.773 C 500.262,706.773 500.233,706.787 500.233,706.815 C 500.233,706.859 500.27,706.873 500.347,706.873 C 500.665,706.873 501.111,706.85 501.146,706.85 C 501.18,706.85 501.697,706.873 501.908,706.873 C 501.984,706.873 502.02,706.859 502.02,706.815 C 502.02,706.787 501.991,706.773 501.963,706.773 C 501.914,706.773 501.816,706.766 501.732,706.752 C 501.526,706.718 501.47,706.599 501.456,706.351 C 501.442,706.124 501.442,705.927 501.442,704.826 L 501.442,703.568 z"
               id="path1053"
               style="fill:#000000;fill-opacity:1;fill-rule:nonzero;stroke:none" /><g
               id="g1055"><g
                 clip-path="url(#clipPath1059)"
                 id="g1057"><path
                   d="M 505.572,703.87 C 505.551,703.87 505.537,703.884 505.551,703.921 L 506.172,705.828 C 506.208,705.935 506.244,705.935 506.28,705.828 L 506.951,703.921 C 506.959,703.891 506.959,703.87 506.922,703.87 L 505.572,703.87 z M 504.586,702.312 C 504.457,701.959 504.315,701.689 503.993,701.646 C 503.934,701.639 503.835,701.632 503.785,701.632 C 503.75,701.632 503.721,701.618 503.721,701.59 C 503.721,701.546 503.764,701.534 503.857,701.534 C 504.188,701.534 504.578,701.553 504.656,701.553 C 504.733,701.553 505.036,701.534 505.208,701.534 C 505.271,701.534 505.312,701.546 505.312,701.59 C 505.312,701.618 505.292,701.632 505.243,701.632 L 505.172,701.632 C 505.05,701.632 504.901,701.696 504.901,701.838 C 504.901,701.966 504.936,702.132 505.001,702.312 L 505.424,703.562 C 505.438,703.596 505.459,703.617 505.494,703.617 L 507.015,703.617 C 507.05,703.617 507.063,703.604 507.078,703.576 L 507.733,701.838 C 507.776,701.725 507.733,701.661 507.691,701.646 C 507.663,701.639 507.643,701.625 507.643,701.597 C 507.643,701.553 507.718,701.553 507.854,701.546 C 508.34,701.534 508.856,701.534 508.963,701.534 C 509.04,701.534 509.104,701.546 509.104,701.59 C 509.104,701.625 509.075,701.632 509.033,701.632 C 508.963,701.632 508.856,701.639 508.753,701.674 C 508.603,701.717 508.397,701.831 508.145,702.46 C 507.712,703.533 506.604,706.451 506.499,706.718 C 506.415,706.937 506.387,706.972 506.344,706.972 C 506.301,706.972 506.272,706.929 506.188,706.697 L 504.586,702.312 z"
                   id="path1063"
                   style="fill:#000000;fill-opacity:1;fill-rule:nonzero;stroke:none" /><path
                   d="M 509.704,704.826 C 509.704,705.927 509.704,706.124 509.69,706.351 C 509.675,706.592 509.62,706.703 509.388,706.752 C 509.332,706.766 509.211,706.773 509.147,706.773 C 509.117,706.773 509.089,706.787 509.089,706.815 C 509.089,706.859 509.126,706.873 509.204,706.873 C 509.52,706.873 509.953,706.85 510.015,706.85 C 510.078,706.85 510.504,706.873 510.713,706.873 C 510.792,706.873 510.826,706.859 510.826,706.815 C 510.826,706.787 510.8,706.773 510.771,706.773 C 510.72,706.773 510.678,706.766 510.594,706.752 C 510.404,706.725 510.347,706.599 510.333,706.351 C 510.32,706.124 510.32,705.927 510.32,704.826 L 510.32,703.835 C 510.32,702.818 510.546,702.382 510.848,702.091 C 511.195,701.767 511.513,701.703 511.915,701.703 C 512.345,701.703 512.771,701.91 513.023,702.211 C 513.349,702.614 513.433,703.215 513.433,703.942 L 513.433,704.826 C 513.433,705.927 513.433,706.124 513.42,706.351 C 513.408,706.592 513.349,706.703 513.115,706.752 C 513.058,706.766 512.938,706.773 512.877,706.773 C 512.85,706.773 512.82,706.787 512.82,706.815 C 512.82,706.859 512.856,706.873 512.932,706.873 C 513.249,706.873 513.637,706.85 513.681,706.85 C 513.73,706.85 514.063,706.873 514.274,706.873 C 514.351,706.873 514.387,706.859 514.387,706.815 C 514.387,706.787 514.359,706.773 514.33,706.773 C 514.281,706.773 514.238,706.773 514.152,706.752 C 513.965,706.718 513.907,706.599 513.893,706.351 C 513.879,706.124 513.879,705.927 513.879,704.826 L 513.879,704.069 C 513.879,703.304 513.793,702.46 513.229,701.959 C 512.721,701.504 512.192,701.435 511.774,701.435 C 511.535,701.435 510.82,701.463 510.32,701.938 C 509.974,702.268 509.704,702.762 509.704,703.794 L 509.704,704.826 z"
                   id="path1065"
                   style="fill:#000000;fill-opacity:1;fill-rule:nonzero;stroke:none" /><path
                   d="M 515.523,701.625 C 515.424,701.674 515.417,701.703 515.417,701.894 C 515.417,702.247 515.445,702.531 515.454,702.642 C 515.461,702.718 515.475,702.755 515.51,702.755 C 515.552,702.755 515.559,702.734 515.559,702.677 C 515.559,702.614 515.559,702.517 515.58,702.417 C 515.687,701.894 516.153,701.696 516.626,701.696 C 517.304,701.696 517.635,702.183 517.635,702.635 C 517.635,703.124 517.432,703.405 516.824,703.905 L 516.505,704.169 C 515.758,704.783 515.587,705.22 515.587,705.7 C 515.587,706.457 516.153,706.972 517.049,706.972 C 517.325,706.972 517.53,706.944 517.706,706.901 C 517.84,706.873 517.897,706.866 517.953,706.866 C 518.01,706.866 518.026,706.85 518.026,706.815 C 518.026,706.78 517.997,706.549 517.997,706.07 C 517.997,705.955 517.983,705.906 517.946,705.906 C 517.904,705.906 517.897,705.942 517.89,705.998 C 517.883,706.083 517.84,706.273 517.797,706.351 C 517.755,706.428 517.565,706.725 516.917,706.725 C 516.428,706.725 516.045,706.421 516.045,705.906 C 516.045,705.504 516.245,705.264 516.91,704.72 L 517.105,704.563 C 517.939,703.905 518.137,703.468 518.137,702.905 C 518.137,702.614 518.026,702.076 517.537,701.732 C 517.233,701.518 516.853,701.435 516.471,701.435 C 516.138,701.435 515.815,701.484 515.523,701.625"
                   id="path1067"
                   style="fill:#000000;fill-opacity:1;fill-rule:nonzero;stroke:none" /></g></g><path
               d="M 520.405,703.87 C 520.384,703.87 520.37,703.884 520.384,703.921 L 521.006,705.828 C 521.041,705.935 521.075,705.935 521.109,705.828 L 521.781,703.921 C 521.788,703.891 521.788,703.87 521.751,703.87 L 520.405,703.87 z M 519.415,702.312 C 519.289,701.959 519.148,701.689 518.82,701.646 C 518.764,701.639 518.667,701.632 518.619,701.632 C 518.583,701.632 518.555,701.618 518.555,701.59 C 518.555,701.546 518.597,701.534 518.688,701.534 C 519.02,701.534 519.406,701.553 519.485,701.553 C 519.562,701.553 519.868,701.534 520.036,701.534 C 520.099,701.534 520.141,701.546 520.141,701.59 C 520.141,701.618 520.12,701.632 520.072,701.632 L 519.999,701.632 C 519.881,701.632 519.735,701.696 519.735,701.838 C 519.735,701.966 519.77,702.132 519.833,702.312 L 520.256,703.562 C 520.27,703.596 520.292,703.617 520.328,703.617 L 521.845,703.617 C 521.879,703.617 521.893,703.604 521.907,703.576 L 522.565,701.838 C 522.607,701.725 522.565,701.661 522.523,701.646 C 522.494,701.639 522.472,701.625 522.472,701.597 C 522.472,701.553 522.551,701.553 522.687,701.546 C 523.173,701.534 523.687,701.534 523.795,701.534 C 523.874,701.534 523.937,701.546 523.937,701.59 C 523.937,701.625 523.908,701.632 523.865,701.632 C 523.795,701.632 523.687,701.639 523.582,701.674 C 523.433,701.717 523.229,701.831 522.974,702.46 C 522.544,703.533 521.435,706.451 521.328,706.718 C 521.244,706.937 521.215,706.972 521.172,706.972 C 521.131,706.972 521.103,706.929 521.019,706.697 L 519.415,702.312 z"
               id="path1069"
               style="fill:#000000;fill-opacity:1;fill-rule:nonzero;stroke:none" /><path
               d="M 525.136,702.496 C 525.151,701.916 525.22,701.732 525.411,701.674 C 525.547,701.639 525.701,701.632 525.764,701.632 C 525.799,701.632 525.821,701.618 525.821,701.59 C 525.821,701.546 525.778,701.534 525.695,701.534 C 525.29,701.534 525.01,701.553 524.946,701.553 C 524.881,701.553 524.585,701.534 524.267,701.534 C 524.196,701.534 524.154,701.539 524.154,701.59 C 524.154,701.618 524.175,701.632 524.21,701.632 C 524.267,701.632 524.395,701.639 524.501,701.674 C 524.675,701.725 524.711,701.931 524.711,702.572 L 524.717,706.621 C 524.717,706.894 524.74,706.972 524.796,706.972 C 524.853,706.972 524.974,706.815 525.045,706.745 C 525.151,706.628 526.203,705.49 527.29,704.324 C 527.99,703.576 528.757,702.711 528.985,702.482 L 528.907,706.07 C 528.899,706.528 528.851,706.683 528.633,706.738 C 528.505,706.766 528.341,706.773 528.285,706.773 C 528.235,706.773 528.228,706.794 528.228,706.822 C 528.228,706.866 528.285,706.873 528.37,706.873 C 528.688,706.873 529.028,706.85 529.106,706.85 C 529.183,706.85 529.414,706.873 529.706,706.873 C 529.783,706.873 529.833,706.866 529.833,706.822 C 529.833,706.794 529.805,706.773 529.755,706.773 C 529.72,706.773 529.671,706.773 529.585,706.752 C 529.351,706.703 529.324,706.549 529.324,706.124 L 529.31,701.986 C 529.31,701.518 529.295,701.484 529.247,701.484 C 529.192,701.484 529.106,701.562 528.731,701.938 C 528.653,702.008 527.635,703.046 526.887,703.849 C 526.069,704.733 525.269,705.622 525.045,705.878 L 525.136,702.496 z"
               id="path1071"
               style="fill:#000000;fill-opacity:1;fill-rule:nonzero;stroke:none" /><path
               d="M 531.823,702.496 C 531.838,701.916 531.909,701.732 532.1,701.674 C 532.234,701.639 532.388,701.632 532.453,701.632 C 532.488,701.632 532.509,701.618 532.509,701.59 C 532.509,701.546 532.467,701.534 532.38,701.534 C 531.979,701.534 531.696,701.553 531.633,701.553 C 531.569,701.553 531.273,701.534 530.955,701.534 C 530.885,701.534 530.843,701.539 530.843,701.59 C 530.843,701.618 530.865,701.632 530.9,701.632 C 530.955,701.632 531.082,701.639 531.187,701.674 C 531.364,701.725 531.401,701.931 531.401,702.572 L 531.408,706.621 C 531.408,706.894 531.429,706.972 531.485,706.972 C 531.541,706.972 531.662,706.815 531.731,706.745 C 531.838,706.628 532.89,705.49 533.978,704.324 C 534.676,703.576 535.447,702.711 535.673,702.482 L 535.597,706.07 C 535.589,706.528 535.54,706.683 535.32,706.738 C 535.192,706.766 535.03,706.773 534.975,706.773 C 534.926,706.773 534.919,706.794 534.919,706.822 C 534.919,706.866 534.975,706.873 535.059,706.873 C 535.377,706.873 535.715,706.85 535.793,706.85 C 535.87,706.85 536.103,706.873 536.393,706.873 C 536.47,706.873 536.519,706.866 536.519,706.822 C 536.519,706.794 536.492,706.773 536.441,706.773 C 536.406,706.773 536.356,706.773 536.273,706.752 C 536.041,706.703 536.012,706.549 536.012,706.124 L 535.998,701.986 C 535.998,701.518 535.983,701.484 535.935,701.484 C 535.877,701.484 535.793,701.562 535.42,701.938 C 535.34,702.008 534.326,703.046 533.574,703.849 C 532.756,704.733 531.958,705.622 531.731,705.878 L 531.823,702.496 z"
               id="path1073"
               style="fill:#000000;fill-opacity:1;fill-rule:nonzero;stroke:none" /><path
               d="M 538.322,704.826 C 538.322,705.927 538.322,706.124 538.308,706.351 C 538.292,706.592 538.236,706.703 538.004,706.752 C 537.948,706.766 537.828,706.773 537.764,706.773 C 537.735,706.773 537.708,706.787 537.708,706.815 C 537.708,706.859 537.743,706.873 537.82,706.873 C 538.137,706.873 538.584,706.85 538.618,706.85 C 538.667,706.85 540.074,706.85 540.237,706.859 C 540.369,706.866 540.48,706.88 540.539,706.894 C 540.574,706.901 540.602,706.929 540.638,706.929 C 540.66,706.929 540.667,706.901 540.667,706.866 C 540.667,706.815 540.631,706.731 540.609,706.535 C 540.602,706.464 540.588,706.152 540.574,706.07 C 540.567,706.035 540.553,705.991 540.524,705.991 C 540.48,705.991 540.467,706.026 540.467,706.083 C 540.467,706.132 540.459,706.251 540.426,706.336 C 540.376,706.451 540.306,706.535 539.922,706.577 C 539.804,706.592 539.035,706.599 538.958,706.599 C 538.929,706.599 538.915,706.577 538.915,706.528 L 538.915,704.578 C 538.915,704.528 538.923,704.507 538.958,704.507 C 539.049,704.507 539.917,704.507 540.081,704.519 C 540.251,704.535 540.349,704.549 540.412,704.619 C 540.459,704.678 540.488,704.713 540.517,704.713 C 540.539,704.713 540.553,704.699 540.553,704.655 C 540.553,704.613 540.517,704.491 540.495,704.262 C 540.48,704.12 540.467,703.856 540.467,703.808 C 540.467,703.752 540.467,703.676 540.419,703.676 C 540.383,703.676 540.369,703.704 540.369,703.739 C 540.369,703.808 540.369,703.877 540.341,703.97 C 540.314,704.069 540.251,704.19 539.974,704.218 C 539.782,704.239 539.085,704.253 538.965,704.253 C 538.929,704.253 538.915,704.234 538.915,704.204 L 538.915,703.582 C 538.915,703.341 538.908,702.524 538.915,702.375 C 538.936,701.887 539.044,701.796 539.735,701.796 C 539.917,701.796 540.229,701.796 540.412,701.875 C 540.595,701.952 540.68,702.091 540.731,702.382 C 540.744,702.46 540.758,702.489 540.794,702.489 C 540.837,702.489 540.837,702.431 540.837,702.382 C 540.837,702.325 540.779,701.845 540.744,701.696 C 540.695,701.512 540.638,701.512 540.362,701.512 C 539.294,701.512 538.822,701.553 538.618,701.553 C 538.584,701.553 538.137,701.534 537.928,701.534 C 537.848,701.534 537.814,701.546 537.814,701.59 C 537.814,701.611 537.828,701.632 537.869,701.632 C 537.933,701.632 538.018,701.646 538.081,701.661 C 538.222,701.689 538.257,701.845 538.285,702.049 C 538.322,702.347 538.322,702.905 538.322,703.582 L 538.322,704.826 z"
               id="path1075"
               style="fill:#000000;fill-opacity:1;fill-rule:nonzero;stroke:none" /></g></g></g></g></g></svg>